<?xml version="1.0" encoding="UTF-8"?><svg id="Layer_1" xmlns="http://www.w3.org/2000/svg" viewBox="0 0 711.73 356.32"><defs><style>.cls-1{fill:#fff;}</style></defs><path class="cls-1" d="M168.4,31.7C121.4,102.3,84,156.7,31.9,230.6,14.3,255.5,0,276.1,0,276.4c.1,.3,19.3,.6,42.9,.6h42.7l9.3-13.3c5.1-7.3,25.5-37.6,45.4-67.3,19.9-29.7,36.3-54.2,36.5-54.4,1.3-1.7,.7,3.5-3.3,25.4-2.4,13.8-6.9,39.8-9.9,58-3,18.1-6.2,37-7,41.8-.9,4.8-1.4,9.1-1.1,9.5,.2,.4,23.7,.6,52.3,.4l51.8-.3,11.9-19.2c6.6-10.6,16.5-26.4,21.9-35.2,5.5-8.8,18.7-30.4,29.4-48s19.9-32.4,20.4-33c1.2-1.2,1.2,.6-.5,12.7-2.6,18.7-8.6,69.7-12.2,104.4-1,8.9-1.5,16.8-1.2,17.5,.5,1.2,7.7,1.4,43.2,1.1l42.6-.2,.4-2.3c.2-1.2,1.2-12.1,2.1-24.2,4.7-64.6,13.3-151.7,22.5-228.5,1.1-9.1,2-17.7,2-19.3V-.1h-47.2l-47.3,.1-17.5,28.7c-15.3,25-36.3,58.8-59.4,95.4-7.3,11.7-9.1,13.7-8.2,9.2,.3-1.6,1.5-9,2.6-16.4,2.9-18.5,13.4-82.3,16.5-99.5,1.4-7.7,2.5-14.8,2.5-15.8,0-1.6-2.9-1.7-47.2-1.7l-47.3,.1-21.2,31.7Z"/><path class="cls-1" d="M535.43,95.12c-7.7,1.7-22.6,7.2-31,11.5-30.5,15.3-50.8,38.2-59,66.3-10.8,37.2-.3,63.4,31.1,77.6,10.2,4.6,16.8,6,33.9,7,16.7,.9,25.2,2.6,29.4,5.7,3.5,2.6,4.5,4.5,3.7,7.5-1.2,5-4.7,7.7-12.4,9.7-17.1,4.5-80.7,16.4-165.4,30.9-9.8,1.7-25.6,4.4-35,6.1-9.5,1.6-54,9-98.8,16.5-107.4,17.8-101.1,16.7-97.7,17.6,7.8,2.1,164.6,4.9,275.2,4.9,82.3-.1,124.3-1,136.2-3,29.4-4.9,61.6-23.7,79.9-46.4,15.4-19.1,25.5-51.6,22.5-72.2-3.9-26.8-25.8-43.1-61.6-45.9-12.4-1-29.9-4.2-33.7-6.1-6.2-3.2-7-6-3.8-12.3,2.2-4.5,6.7-7.4,14.8-9.7,7.9-2.2,44.4-3,64.8-1.5l15.3,1.2,33.8-32.1c18.6-17.6,34-32.5,34.1-33,.4-1-172.1-1.3-176.3-.3Z"/></svg>