<?xml version="1.0" standalone="no"?>
<!DOCTYPE svg PUBLIC "-//W3C//DTD SVG 20010904//EN"
 "http://www.w3.org/TR/2001/REC-SVG-20010904/DTD/svg10.dtd">
<svg version="1.0" xmlns="http://www.w3.org/2000/svg"
 width="2880.000000pt" height="692.000000pt" viewBox="0 0 2880.000000 692.000000"
 preserveAspectRatio="xMidYMid meet">

<g transform="translate(0.000000,692.000000) scale(0.100000,-0.100000)"
fill="#ffffff" stroke="none">
<path d="M1753 5942 c-470 -706 -844 -1250 -1365 -1989 -176 -249 -319 -455
-319 -458 1 -3 193 -6 429 -6 l427 0 93 133 c51 73 255 376 454 673 199 297
363 542 365 544 13 17 7 -35 -33 -254 -24 -138 -69 -398 -99 -580 -30 -181
-62 -370 -70 -418 -9 -48 -14 -91 -11 -95 2 -4 237 -6 523 -4 l518 3 119 192
c66 106 165 264 219 352 55 88 187 304 294 480 107 176 199 324 204 330 12 12
12 -6 -5 -127 -26 -187 -86 -697 -122 -1044 -10 -89 -15 -168 -12 -175 5 -12
77 -14 432 -11 l426 2 4 23 c2 12 12 121 21 242 47 646 133 1517 225 2285 11
91 20 177 20 193 l0 27 -472 0 -473 -1 -175 -287 c-153 -250 -363 -588 -594
-954 -73 -117 -91 -137 -82 -92 3 16 15 90 26 164 29 185 134 823 165 995 14
77 25 148 25 158 0 16 -29 17 -472 17 l-473 -1 -212 -317z"/>
<path d="M5121 6238 c-5 -13 -66 -198 -136 -413 -70 -214 -140 -428 -155 -475
-15 -47 -89 -274 -165 -505 -75 -231 -143 -438 -152 -460 -13 -35 -38 -292
-78 -807 l-7 -88 475 0 476 0 25 83 c14 45 59 199 100 342 41 143 95 332 121
420 26 88 75 259 110 380 35 121 93 324 130 450 37 127 84 291 106 365 22 74
71 248 110 385 39 138 76 269 84 292 7 23 11 44 7 47 -3 3 -239 6 -524 6
l-518 0 -9 -22z"/>
<path d="M6388 6238 c-3 -13 -44 -156 -91 -318 -46 -162 -120 -419 -162 -570
-43 -151 -97 -342 -120 -425 -50 -175 -138 -489 -226 -800 -34 -121 -88 -312
-120 -424 -32 -113 -56 -207 -54 -210 2 -3 574 -5 1272 -3 l1269 2 72 363 c40
199 75 372 78 385 l6 22 -676 0 c-400 0 -676 4 -676 9 0 5 20 90 44 188 25 98
65 261 90 363 58 238 152 624 260 1063 47 192 86 355 86 363 0 12 -75 14 -524
14 l-524 0 -4 -22z"/>
<path d="M8915 6238 c-2 -13 -25 -131 -50 -263 -25 -132 -59 -307 -75 -390
-16 -82 -50 -258 -75 -390 -25 -132 -52 -271 -60 -310 -8 -38 -35 -178 -60
-310 -25 -132 -52 -271 -60 -310 -41 -202 -136 -707 -138 -738 l-2 -37 1264 0
c696 0 1266 2 1269 4 6 7 89 756 83 761 -2 3 -304 5 -671 5 -367 0 -669 2
-672 5 -3 3 1 40 8 83 8 42 34 210 59 372 25 162 52 336 60 385 8 50 42 266
75 480 33 215 70 447 80 516 11 69 20 133 20 142 0 16 -39 17 -525 17 l-525 0
-5 -22z"/>
<path d="M11446 6223 c-3 -21 -10 -85 -16 -143 -12 -122 -43 -421 -85 -815
-15 -149 -48 -464 -65 -630 -9 -91 -26 -247 -65 -625 -33 -321 -47 -457 -48
-487 l-2 -33 1210 0 1210 0 6 117 c3 65 8 226 10 358 l4 240 -619 3 -618 2 7
128 c4 70 12 133 17 140 8 9 144 12 618 12 l607 0 10 378 c5 207 8 380 6 385
-2 4 -272 7 -599 7 l-596 0 7 128 c4 70 8 133 10 140 4 9 131 12 595 12 464 0
591 3 594 13 3 6 7 168 11 360 l6 347 -1105 0 -1104 0 -6 -37z"/>
<path d="M13875 6248 c-2 -7 -9 -287 -15 -623 -10 -601 -24 -1373 -35 -1877
-3 -170 -2 -258 5 -258 5 0 210 0 455 0 245 0 450 0 456 0 7 0 8 90 5 288 -17
872 -17 1028 -3 1012 8 -8 90 -141 182 -295 93 -154 254 -415 358 -580 105
-165 208 -328 230 -362 21 -35 44 -63 51 -63 146 -2 1261 1 1263 4 2 1 -3 79
-11 172 -8 93 -22 264 -31 379 -8 116 -22 291 -30 390 -8 99 -21 272 -30 385
-16 213 -35 456 -60 765 -7 99 -21 281 -30 405 -9 124 -19 235 -21 248 l-4 22
-421 0 -421 0 6 -117 c4 -65 13 -253 21 -418 8 -165 19 -403 26 -528 10 -200
9 -253 -4 -236 -2 2 -39 69 -82 149 -43 80 -90 168 -105 195 -15 28 -58 109
-95 180 -37 72 -87 166 -110 210 -23 44 -97 189 -165 323 l-122 242 -630 0
c-494 0 -630 -3 -633 -12z"/>
<path d="M16829 6253 c-2 -19 3 -101 16 -253 8 -91 21 -248 30 -350 8 -102 22
-261 30 -355 8 -93 21 -249 29 -345 9 -96 22 -254 30 -350 9 -96 22 -254 30
-350 38 -450 47 -552 56 -649 6 -57 11 -106 13 -107 2 -2 208 -4 458 -4 l454
0 -2 67 c-3 68 -38 390 -108 978 -8 66 -17 154 -20 195 l-7 75 39 -54 c505
-712 904 -1256 925 -1262 7 -2 294 -2 639 1 l625 5 -246 1356 c-136 746 -250
1368 -254 1382 l-6 27 -420 0 c-231 0 -420 -3 -420 -6 0 -4 7 -48 15 -98 16
-103 26 -170 90 -591 73 -480 85 -559 90 -582 10 -43 -13 -23 -66 60 -232 360
-320 498 -474 747 -83 135 -182 296 -219 358 l-67 112 -630 0 c-346 0 -629 -3
-630 -7z"/>
<path d="M19779 6253 c-2 -12 -7 16 97 -533 53 -283 100 -533 104 -555 4 -22
51 -272 105 -555 54 -283 123 -650 154 -815 l57 -300 573 -5 c441 -4 575 -2
578 7 3 7 -16 101 -41 210 -25 109 -79 349 -121 533 -150 663 -196 868 -240
1060 -69 305 -171 755 -195 863 l-22 97 -524 0 c-288 0 -525 -3 -525 -7z"/>
<path d="M21040 6256 c0 -5 119 -518 256 -1103 47 -203 110 -470 139 -594 62
-265 67 -282 112 -374 98 -197 260 -345 522 -476 210 -105 490 -184 740 -209
133 -13 394 -13 519 0 445 48 783 244 863 501 24 76 25 220 4 304 -14 52 -172
549 -210 660 -7 22 -54 168 -105 325 -50 157 -97 303 -105 325 -15 43 -189
585 -200 623 l-6 22 -475 0 c-261 0 -474 -2 -474 -4 0 -4 29 -106 113 -396 25
-85 71 -243 102 -350 31 -107 85 -294 120 -415 35 -121 93 -323 130 -450 37
-126 72 -250 77 -274 29 -130 -84 -216 -282 -214 -110 1 -191 24 -276 78 -71
46 -99 92 -134 221 -17 60 -37 134 -45 164 -17 63 -103 384 -195 730 -34 129
-68 255 -75 280 -7 25 -34 126 -60 225 -26 99 -53 200 -60 225 -7 25 -21 75
-31 113 l-17 67 -473 0 c-261 0 -474 -2 -474 -4z"/>
<path d="M24310 6233 c0 -16 7 -82 15 -148 32 -272 56 -475 65 -560 5 -49 18
-171 29 -270 48 -436 133 -1390 154 -1720 l2 -40 429 -5 c358 -4 429 -3 434 9
5 13 -11 180 -43 461 -55 480 -73 628 -91 758 -17 121 -17 139 -5 127 5 -6 97
-154 204 -330 107 -176 270 -441 362 -590 92 -148 191 -307 219 -352 l51 -83
518 -2 c286 -2 520 -1 522 2 6 10 -107 694 -194 1180 -26 144 -31 185 -18 169
2 -2 166 -247 365 -544 199 -297 403 -600 454 -673 l93 -133 428 0 c235 0 427
3 428 6 0 3 -143 209 -319 458 -525 746 -874 1252 -1335 1944 l-242 362 -472
1 c-444 0 -473 -1 -473 -17 0 -10 11 -81 25 -158 31 -172 136 -810 165 -995
11 -74 23 -148 26 -164 9 -45 -9 -25 -82 92 -231 366 -441 704 -594 954 l-175
287 -472 1 -473 0 0 -27z"/>
<path d="M8585 3273 c-77 -17 -226 -72 -310 -115 -305 -153 -508 -382 -590
-663 -108 -372 -3 -634 311 -776 102 -46 168 -60 339 -70 167 -9 252 -26 294
-57 35 -26 45 -45 37 -75 -12 -50 -47 -77 -124 -97 -171 -45 -807 -164 -1654
-309 -98 -17 -256 -44 -350 -61 -95 -16 -540 -90 -988 -165 -1074 -178 -1011
-167 -977 -176 78 -21 1646 -49 2752 -49 823 1 1243 10 1362 30 294 49 616
237 799 464 154 191 255 516 225 722 -39 268 -258 431 -616 459 -124 10 -299
42 -337 61 -62 32 -70 60 -38 123 22 45 67 74 148 97 79 22 444 30 648 15
l153 -12 338 321 c186 176 340 325 341 330 4 10 -1721 13 -1763 3z"/>
<path d="M10461 3089 c-111 -105 -201 -192 -201 -194 0 -4 -78 -294 -86 -317
-5 -17 12 -18 350 -18 195 0 357 -4 360 -9 3 -5 -1 -28 -8 -52 -8 -24 -42
-150 -76 -279 -34 -129 -68 -255 -75 -280 -7 -25 -41 -151 -75 -280 -61 -230
-145 -545 -215 -805 -19 -72 -35 -136 -35 -143 0 -9 107 -12 459 -12 l459 0
11 32 c5 18 19 67 30 108 38 147 83 317 121 455 21 77 66 246 100 375 147 551
180 678 195 730 8 30 21 78 28 105 l14 50 357 3 c273 2 358 5 361 15 2 6 31
118 65 247 34 129 75 282 91 340 16 58 29 108 29 113 0 4 -463 7 -1029 7
l-1030 0 -200 -191z"/>
<path d="M12934 3253 c-3 -16 -12 -50 -20 -78 -8 -27 -34 -126 -59 -220 -25
-93 -52 -195 -60 -225 -8 -30 -35 -127 -59 -215 -25 -88 -71 -257 -104 -375
-55 -200 -87 -317 -243 -905 -32 -121 -65 -245 -74 -275 -48 -175 -65 -240
-65 -250 0 -7 140 -9 462 -8 l461 3 27 100 c24 89 89 330 183 685 17 63 35
121 40 128 22 28 44 12 75 -55 17 -38 83 -183 147 -323 64 -140 146 -319 182
-397 l66 -143 458 0 c313 0 459 3 459 10 0 9 -239 537 -376 829 -39 83 -42
101 -16 101 43 0 183 45 257 82 292 147 517 414 600 713 67 241 50 423 -54
587 -84 133 -217 224 -362 247 -41 7 -396 11 -991 11 l-928 0 -6 -27z m1345
-608 c113 -58 117 -200 10 -307 -85 -85 -98 -88 -420 -88 -153 0 -279 3 -279
6 0 13 101 386 107 397 2 4 128 7 279 7 222 0 280 -3 303 -15z"/>
<path d="M15686 3183 c-14 -54 -47 -174 -72 -268 -25 -93 -70 -262 -99 -375
-29 -113 -64 -245 -78 -295 -14 -49 -37 -135 -52 -190 -15 -55 -46 -172 -70
-260 -23 -88 -71 -266 -105 -395 -34 -129 -89 -333 -121 -454 -46 -168 -57
-222 -48 -232 9 -12 99 -14 508 -14 l497 0 63 238 c35 130 90 336 122 457 32
121 66 245 74 275 8 30 42 154 74 275 122 459 185 695 226 850 125 465 125
465 125 475 0 6 -194 10 -509 10 l-509 0 -26 -97z"/>
<path d="M16891 3043 c-35 -131 -90 -337 -122 -458 -32 -121 -66 -245 -74
-275 -8 -30 -42 -154 -74 -275 -133 -501 -187 -701 -242 -905 -89 -333 -109
-409 -109 -420 0 -7 153 -9 457 -8 l458 3 31 115 c17 63 60 221 94 350 34 129
68 258 76 285 8 28 35 126 59 219 25 93 47 171 50 174 7 7 11 -10 39 -183 14
-88 42 -252 61 -365 20 -113 49 -284 65 -380 17 -96 32 -185 35 -197 l5 -23
510 0 c482 0 510 1 510 18 0 20 -318 1400 -325 1412 -3 5 16 33 42 63 140 158
944 1046 953 1052 5 3 10 13 10 21 0 12 -72 14 -507 14 l-508 -1 -96 -117
c-419 -514 -644 -783 -647 -771 -2 12 67 282 133 519 32 116 95 355 95 362 0
4 -206 8 -458 8 l-458 0 -63 -237z"/>
<path d="M19645 3228 c-56 -62 -51 -51 -105 -253 -100 -377 -161 -604 -175
-655 -8 -30 -42 -154 -74 -275 -122 -459 -185 -695 -226 -850 -60 -223 -94
-351 -111 -413 -8 -29 -14 -60 -14 -68 0 -12 140 -14 1077 -12 l1078 3 57 215
c32 118 71 265 88 326 16 61 30 114 30 118 0 3 -252 6 -560 6 -529 0 -560 1
-560 18 0 9 9 49 19 87 11 39 24 89 31 112 l11 43 566 2 566 3 8 25 c4 14 35
131 69 260 34 129 73 274 86 322 13 48 24 92 24 97 0 8 -174 11 -560 11 -421
0 -560 3 -560 12 0 18 52 211 62 231 8 16 46 17 572 17 l563 0 324 111 c178
60 362 123 409 139 47 16 245 83 440 150 195 67 443 151 550 187 107 36 199
70 205 74 5 5 -841 9 -1917 9 l-1926 0 -47 -52z"/>
</g>
</svg>
